<svg width="159" height="42" viewBox="0 0 159 42" fill="none" xmlns="http://www.w3.org/2000/svg">
<g id="Group 17">
<path id="path46" d="M65.1689 21.3246C65.1689 16.1028 63.6799 13.4219 60.702 13.2751C59.5171 13.2192 58.3602 13.4079 57.2347 13.8449C56.3365 14.1664 55.7318 14.4845 55.4137 14.806V27.27C57.3186 28.4653 59.0103 29.0211 60.4853 28.9337C63.6065 28.7275 65.1689 26.1934 65.1689 21.3246ZM68.8423 21.5413C68.8423 24.1942 68.2202 26.3962 66.9689 28.1472C65.5743 30.129 63.6415 31.1496 61.1703 31.2056C59.3074 31.265 57.3885 30.6813 55.4137 29.458V40.7859L52.2191 39.6465V14.5019C52.7434 13.8588 53.418 13.3066 54.2359 12.8382C56.1372 11.7302 58.4476 11.1605 61.1669 11.1326L61.2123 11.178C63.6974 11.1465 65.6128 12.1672 66.9584 14.2363C68.2132 16.1342 68.8423 18.5669 68.8423 21.5413Z" fill="#193E53"/>
<path id="path48" d="M88.3666 28.9756C88.3666 32.5337 88.0101 34.9979 87.297 36.368C86.5805 37.7381 85.2174 38.8321 83.2041 39.6465C81.5719 40.2896 79.8068 40.6391 77.9124 40.6986L77.3846 38.6853C79.3105 38.4232 80.6666 38.161 81.453 37.8989C83.0014 37.3746 84.064 36.5707 84.6477 35.4942C85.116 34.6169 85.3467 32.9427 85.3467 30.4646V29.6327C83.1622 30.6254 80.8728 31.1182 78.4786 31.1182C76.9058 31.1182 75.5182 30.6254 74.3228 29.6327C72.9807 28.5527 72.3096 27.1826 72.3096 25.5224V12.2266L75.5042 11.1326V24.5157C75.5042 25.9453 75.9656 27.0463 76.8883 27.8187C77.811 28.5911 79.0064 28.9616 80.4709 28.9337C81.9354 28.9022 83.5047 28.336 85.1719 27.228V11.6149H88.3666V28.9756Z" fill="#193E53"/>
<path id="path50" d="M100.837 31.0309C100.457 31.0623 100.107 31.0763 99.7854 31.0763C97.9784 31.0763 96.5698 30.6464 95.5632 29.7831C94.5601 28.9198 94.0568 27.7279 94.0568 26.2075V13.6247H91.8688V11.615H94.0568V6.27779L97.2479 5.14185V11.615H100.837V13.6247H97.2479V26.1201C97.2479 27.319 97.5695 28.1683 98.2126 28.6646C98.7648 29.0736 99.6421 29.3077 100.837 29.3672V31.0309Z" fill="#193E53"/>
<path id="path52" d="M120.18 30.7687H116.985V18.4376C116.985 17.1828 116.692 16.1028 116.108 15.201C115.433 14.1804 114.497 13.6701 113.294 13.6701C111.83 13.6701 109.998 14.4426 107.8 15.9875V30.7687H104.605V1.29361L107.8 0.286987V13.7121C109.841 12.2266 112.071 11.4821 114.493 11.4821C116.185 11.4821 117.555 12.0519 118.604 13.1878C119.656 14.3237 120.18 15.7393 120.18 17.431V30.7687Z" fill="#193E53"/>
<path id="path54" d="M137.16 20.8213C137.16 18.815 136.779 17.1583 136.02 15.8476C135.119 14.2503 133.717 13.4079 131.823 13.3206C128.32 13.5233 126.573 16.0329 126.573 20.8423C126.573 23.0477 126.936 24.8897 127.67 26.3682C128.607 28.2521 130.012 29.1818 131.885 29.1504C135.402 29.1224 137.16 26.3472 137.16 20.8213ZM140.658 20.8423C140.658 23.6979 139.928 26.0746 138.47 27.9725C136.866 30.0976 134.65 31.1636 131.823 31.1636C129.019 31.1636 126.835 30.0976 125.259 27.9725C123.829 26.0746 123.116 23.6979 123.116 20.8423C123.116 18.1579 123.888 15.9 125.433 14.0616C127.066 12.1112 129.212 11.1326 131.864 11.1326C134.517 11.1326 136.677 12.1112 138.341 14.0616C139.886 15.9 140.658 18.1579 140.658 20.8423Z" fill="#193E53"/>
<path id="path56" d="M158.973 30.7687H155.779V17.7385C155.779 16.309 155.349 15.194 154.489 14.3901C153.629 13.5897 152.483 13.2017 151.053 13.2332C149.536 13.2612 148.093 13.7575 146.723 14.7187V30.7687H143.528V14.3237C145.366 12.985 147.058 12.1112 148.603 11.7023C150.061 11.3213 151.347 11.1326 152.455 11.1326C153.213 11.1326 153.926 11.206 154.597 11.3528C155.852 11.6429 156.873 12.1811 157.659 12.9711C158.536 13.8449 158.973 14.8934 158.973 16.1202V30.7687Z" fill="#193E53"/>
<path id="path1948" d="M20.6666 1.41171C19.0229 1.41934 17.4533 1.55952 16.0722 1.80391C12.0035 2.52271 11.2648 4.02721 11.2648 6.80176V10.4661H20.8795V11.6876H11.2648H7.6565C4.8622 11.6876 2.41544 13.3671 1.65012 16.5621C0.767334 20.2244 0.728177 22.5097 1.65012 26.3337C2.33357 29.1802 3.96573 31.2083 6.76003 31.2083H10.0658V26.8156C10.0658 23.6421 12.8116 20.8428 16.0722 20.8428H25.6757C28.3489 20.8428 30.483 18.6417 30.483 15.957V6.80176C30.483 4.19613 28.2849 2.23878 25.6757 1.80391C24.024 1.52897 22.3103 1.40407 20.6666 1.41171ZM15.467 4.35887C16.4602 4.35887 17.2712 5.18314 17.2712 6.19664C17.2712 7.20655 16.4602 8.02321 15.467 8.02321C14.4704 8.02321 13.6629 7.20655 13.6629 6.19664C13.6629 5.18314 14.4704 4.35887 15.467 4.35887Z" fill="#269383"/>
<path id="path1950" d="M31.6821 11.6875V15.957C31.6821 19.267 28.8758 22.053 25.6757 22.053H16.0722C13.4416 22.053 11.2648 24.3044 11.2648 26.9388V36.094C11.2648 38.6997 13.5306 40.2323 16.0722 40.9798C19.1157 41.8747 22.0342 42.0365 25.6757 40.9798C28.0962 40.279 30.483 38.8686 30.483 36.094V32.4297H20.8795V31.2083H30.483H35.2904C38.0847 31.2083 39.1259 29.2592 40.0977 26.3337C41.1015 23.3219 41.0588 20.4256 40.0977 16.5621C39.4072 13.7803 38.0882 11.6875 35.2904 11.6875H31.6821ZM26.2808 34.8726C27.2775 34.8726 28.085 35.6893 28.085 36.6992C28.0849 37.7127 27.2775 38.5369 26.2808 38.5369C25.2877 38.5369 24.4766 37.7127 24.4766 36.6992C24.4766 35.6893 25.2877 34.8726 26.2808 34.8726Z" fill="#3AD2AE"/>
</g>
</svg>
