<svg width="159" height="54" viewBox="0 0 159 54" fill="none" xmlns="http://www.w3.org/2000/svg">
<g id="Group 20">
<path id="circle4255" fill-rule="evenodd" clip-rule="evenodd" d="M26.7572 1.66919V1.69627C22.3485 1.79375 18.153 3.6126 15.0682 6.76376C11.9834 9.91491 10.2542 14.1482 10.2505 18.5579C10.2543 22.8041 11.8583 26.8929 14.7427 30.009C17.6271 33.1252 21.58 35.0398 25.8132 35.3711C23.7522 35.1391 21.8487 34.1564 20.4661 32.6104C19.0835 31.0644 18.3186 29.0634 18.3173 26.9894C18.3173 24.751 19.2065 22.6042 20.7893 21.0215C22.3721 19.4387 24.5188 18.5494 26.7572 18.5494C28.9739 18.5494 31.1689 18.9861 33.2168 19.8344C35.2648 20.6826 37.1256 21.926 38.693 23.4934C40.2605 25.0609 41.5038 26.9217 42.3521 28.9697C43.2004 31.0176 43.637 33.2126 43.637 35.4293C43.6344 39.6553 42.0466 43.7266 39.1876 46.8386C36.3285 49.9506 32.4061 51.877 28.1955 52.2371C34.6459 51.8701 40.7121 49.0512 45.1518 44.3574C49.5915 39.6636 52.069 33.4502 52.0769 26.9894C52.0712 20.6159 49.662 14.4791 45.3303 9.80385C40.9986 5.12864 35.0631 2.259 28.7086 1.7678C28.1842 1.71338 27.6576 1.68357 27.1305 1.67843C27.0972 1.68011 27.0639 1.68187 27.0307 1.68375C26.9396 1.67867 26.8485 1.67407 26.7574 1.66998L26.7572 1.66919Z" fill="url(#paint0_linear_33_3670)" stroke="white" stroke-width="2" stroke-linecap="round"/>
<path id="path4282" fill-rule="evenodd" clip-rule="evenodd" d="M27.1303 52.3309V52.3038C31.539 52.2063 35.7345 50.3875 38.8193 47.2363C41.9041 44.0852 43.6333 39.852 43.637 35.4422C43.6332 31.196 42.0292 27.1072 39.1448 23.9911C36.2604 20.8749 32.3075 18.9603 28.0742 18.629C30.1353 18.861 32.0387 19.8437 33.4214 21.3897C34.804 22.9357 35.5689 24.9367 35.5702 27.0107C35.5702 29.2491 34.681 31.3958 33.0982 32.9786C31.5154 34.5614 29.3687 35.4506 27.1303 35.4506C22.6535 35.4506 18.36 33.6722 15.1944 30.5066C12.0289 27.3411 10.2505 23.0476 10.2505 18.5708C10.2531 14.3448 11.8408 10.2735 14.6999 7.16149C17.5589 4.04944 21.4813 2.12304 25.6919 1.76294C19.2415 2.12996 13.1754 4.94893 8.73568 9.64269C4.29594 14.3364 1.81848 20.5499 1.81055 27.0107C1.8163 33.3842 4.22548 39.521 8.55717 44.1962C12.8889 48.8715 18.8244 51.7411 25.1789 52.2323C25.7033 52.2867 26.2299 52.3165 26.7571 52.3217C26.7903 52.32 26.8236 52.3182 26.8568 52.3163C26.9479 52.3214 27.039 52.326 27.1301 52.3301L27.1303 52.3309Z" fill="url(#paint1_linear_33_3670)" stroke="white" stroke-width="2" stroke-linecap="round"/>
<g id="ACME">
<path d="M80.5671 44.7721L77.9246 33.5356H69.5885L66.946 44.7721H62.8621L71.3422 9.8194H75.9787L84.627 44.7721H80.5671ZM77.2039 30.0212L74.5133 18.1631C74.4012 17.5734 74.2891 16.9996 74.177 16.4418C74.0809 15.868 73.9848 15.3181 73.8887 14.7921C73.8086 14.2502 73.7285 13.7243 73.6485 13.2143C73.6004 13.7243 73.5364 14.2502 73.4563 14.7921C73.3762 15.334 73.2801 15.8839 73.168 16.4418C73.0559 16.9837 72.9358 17.5415 72.8076 18.1153L70.1891 30.0212H77.2039Z" fill="#193E53"/>
<path d="M98.9448 12.7361C97.5515 12.7361 96.3503 13.1266 95.3414 13.9076C94.3484 14.6885 93.5316 15.7644 92.891 17.1351C92.2664 18.4898 91.802 20.0438 91.4977 21.797C91.2094 23.5343 91.0652 25.3672 91.0652 27.2957C91.0652 30.2921 91.3936 32.8741 92.0502 35.0417C92.7228 37.2094 93.6678 38.8829 94.8849 40.0623C96.1021 41.2258 97.5355 41.8075 99.1851 41.8075C100.178 41.8075 101.115 41.68 101.996 41.425C102.877 41.17 103.685 40.8592 104.422 40.4926V43.9353C103.653 44.3816 102.797 44.7083 101.852 44.9155C100.907 45.1386 99.8737 45.2502 98.7527 45.2502C96.3664 45.2502 94.3004 44.533 92.5547 43.0985C90.809 41.6641 89.4637 39.6081 88.5188 36.9304C87.5739 34.2369 87.1014 31.0094 87.1014 27.2479C87.1014 24.7775 87.3336 22.4585 87.7981 20.2909C88.2786 18.1233 88.9993 16.2107 89.9602 14.5531C90.9371 12.8955 92.1623 11.6045 93.6357 10.6801C95.1091 9.73971 96.8388 9.26953 98.8247 9.26953C99.9778 9.26953 101.083 9.42094 102.14 9.72377C103.213 10.0107 104.238 10.433 105.215 10.9909L103.846 14.2184C103.109 13.7562 102.332 13.3975 101.515 13.1425C100.699 12.8716 99.8417 12.7361 98.9448 12.7361Z" fill="#193E53"/>
<path d="M122.103 44.7721L113.575 15.079H113.383C113.447 16.1469 113.495 17.1112 113.527 17.9718C113.575 18.8166 113.607 19.5497 113.623 20.1713C113.639 20.7929 113.647 21.3029 113.647 21.7014V44.7721H110.02V9.8194H115.425L123.809 38.8908H123.953L132.361 9.8194H137.838V44.7721H134.091V21.797C134.091 21.3667 134.099 20.8328 134.115 20.1952C134.131 19.5577 134.155 18.8166 134.187 17.9718C134.235 17.1112 134.275 16.1469 134.307 15.079H134.139L125.611 44.7721H122.103Z" fill="#193E53"/>
<path d="M158.811 44.7721H144.997V9.8194H158.811V13.2143H148.817V24.8094H158.21V28.2281H148.817V41.3055H158.811V44.7721Z" fill="#193E53"/>
</g>
</g>
<defs>
<linearGradient id="paint0_linear_33_3670" x1="9.80584" y1="26.9534" x2="52.5211" y2="26.9534" gradientUnits="userSpaceOnUse">
<stop stop-color="#6CB1E1"/>
<stop offset="0.0001" stop-color="#5CBEB4"/>
<stop offset="1" stop-color="#45FFD6"/>
</linearGradient>
<linearGradient id="paint1_linear_33_3670" x1="1.3659" y1="27.0334" x2="44.0812" y2="27.0334" gradientUnits="userSpaceOnUse">
<stop stop-color="#27B395"/>
<stop offset="1" stop-color="#1D736A"/>
</linearGradient>
</defs>
</svg>
