<svg width="160" height="48" viewBox="0 0 160 48" fill="none" xmlns="http://www.w3.org/2000/svg">
<g id="Group 15">
<g id="Group">
<path id="Vector" d="M54.5778 31.1603C52.3895 31.1603 50.1608 30.2548 48.7651 28.4799V38.0682H44.3822V14.3978H48.3454L48.4967 17.0016C49.8561 15.0008 52.2702 13.944 54.5735 13.944C58.9905 13.944 62.2442 17.6451 62.2442 22.5522C62.2442 27.4592 58.9948 31.1625 54.5778 31.1603ZM53.2205 17.1933C50.653 17.1933 48.5776 19.1941 48.5776 22.5543C48.5776 25.9145 50.653 27.9195 53.2205 27.9195C55.788 27.9195 57.8634 25.9187 57.8634 22.5585C57.8634 19.1984 55.788 17.1933 53.2205 17.1933Z" fill="#193E53"/>
<path id="Vector_2" d="M78.7638 30.7107L78.6125 28.1069C77.2531 30.1077 74.8369 31.1646 72.5335 31.1624C68.1165 31.1624 64.8629 27.4635 64.8629 22.5564C64.8629 17.6493 68.1101 13.9482 72.5335 13.9503C74.8369 13.9503 77.2531 15.0157 78.6125 17.0079L78.7638 14.4042H82.7355V30.7107H78.7638ZM73.8951 17.1954C71.3275 17.1954 69.2522 19.1962 69.2501 22.5564C69.2479 25.9165 71.3254 27.9194 73.893 27.9194C76.4605 27.9194 78.538 25.9187 78.538 22.5585C78.538 19.1983 76.4626 17.1954 73.8951 17.1954Z" fill="#193E53"/>
<path id="Vector_3" d="M98.0491 30.7129V21.6914C98.0491 18.5208 96.956 17.464 94.9553 17.464C92.8778 17.464 90.6128 19.3497 90.6128 21.6147V30.7129H86.232V14.4042H90.2357L90.4253 17.4256C91.5205 15.3481 93.973 13.9525 96.466 13.9525C100.806 13.9525 102.432 16.9739 102.432 21.0117V30.715L98.0491 30.7129Z" fill="#193E53"/>
<path id="Vector_4" d="M118.483 30.7171L118.332 28.1112C116.972 30.112 114.556 31.1688 112.255 31.1688C107.838 31.1688 104.584 27.4678 104.584 22.5607C104.584 17.6536 107.831 13.9546 112.255 13.9546C114.443 13.9546 116.67 14.8623 118.067 16.6351V8.06738H122.448V30.7171H118.483ZM113.614 17.2019C111.057 17.2019 108.971 19.2026 108.971 22.5607C108.971 25.9187 111.047 27.9195 113.614 27.9195C116.182 27.9195 118.257 25.9208 118.257 22.5607C118.257 19.2005 116.188 17.2019 113.614 17.2019Z" fill="#193E53"/>
<path id="Vector_5" d="M138.902 30.7193L138.75 28.1155C137.391 30.1163 134.975 31.171 132.671 31.171C128.254 31.171 125.001 27.4721 125.001 22.5628C125.001 17.6536 128.248 13.9568 132.671 13.9568C134.975 13.9568 137.391 15.0222 138.75 17.0165L138.902 14.4106H142.865V30.7172L138.902 30.7193ZM134.033 17.204C131.476 17.204 129.39 19.2048 129.388 22.565C129.386 25.9251 131.465 27.9195 134.031 27.9195C136.596 27.9195 138.676 25.9188 138.676 22.5586C138.676 19.1984 136.601 17.204 134.033 17.204Z" fill="#193E53"/>
<path id="Vector_6" d="M152.566 31.2498C150.262 31.2307 148.006 30.591 146.035 29.3982L146.754 26.3789C148.075 27.1715 150.075 28.1922 152.492 28.1922C154.228 28.1922 155.436 27.6637 155.436 26.3043C155.436 25.1346 154.19 24.7191 151.963 24.1906C147.962 23.3213 146.528 21.2076 146.528 18.9043C146.528 16.3367 148.528 13.9226 152.945 13.9226C155.626 13.9226 157.968 15.0924 158.485 15.3949L157.767 18.2651C156.341 17.4065 154.714 16.9377 153.05 16.9056C151.277 16.9056 150.408 17.5086 150.408 18.4909C150.408 19.584 151.541 20.0762 153.276 20.4917C157.58 21.3972 159.316 23.398 159.316 25.5884C159.325 29.0977 156.757 31.2498 152.566 31.2498Z" fill="#193E53"/>
<path id="Vector_7" d="M8.56024 3.29236H13.6932V13.9503H8.56024V3.29236Z" fill="#193E53"/>
<path id="Vector_8" d="M8.56024 25.1857H13.6932V35.8436H8.56024V25.1857Z" fill="#193E53"/>
</g>
<path id="Vector_9" d="M8.56024 17.0612H13.6932V22.0897H8.56024V17.0612Z" fill="#269383"/>
<path id="Vector_10" d="M0.316406 12.0562H5.44936V47.4839H0.316406V12.0562Z" fill="#193E53"/>
<path id="Vector_11" d="M16.6357 33.9791H21.7687V44.6371H16.6357V33.9791Z" fill="#193E53"/>
<path id="Vector_12" d="M16.6357 12.0688H21.7687V22.7268H16.6357V12.0688Z" fill="#193E53"/>
<path id="Vector_13" d="M16.6357 25.8376H21.7687V30.8662H16.6357V25.8376Z" fill="#44F2C1"/>
<path id="Vector_14" d="M24.7091 0.515991H29.8421V35.9438H24.7091V0.515991Z" fill="#193E53"/>
</g>
</svg>
