<svg width="176" height="44" viewBox="0 0 176 44" fill="none" xmlns="http://www.w3.org/2000/svg">
<g id="Group 18">
<path id="Vector" d="M131.39 12.3195C129.131 13.5429 129.226 17.4957 131.673 18.4368C134.308 19.378 137.131 19.4721 139.766 20.1309C140.425 20.3191 141.084 20.6014 141.366 21.2602C142.025 22.5778 141.46 24.5542 139.955 25.0248C137.79 25.6836 135.249 25.6836 133.178 24.8365C131.767 24.2719 131.108 22.8602 131.014 21.5426C130.449 21.5426 129.79 21.5426 129.226 21.6367C129.32 22.9543 129.602 24.366 130.637 25.213C132.331 26.5306 134.496 26.7188 136.566 26.8129C138.449 26.8129 140.519 26.6247 142.119 25.5895C144.001 24.2719 144.19 20.7897 141.931 19.6603C139.86 18.6251 137.508 18.531 135.343 18.0604C134.308 17.778 133.084 17.6839 132.143 17.0251C130.92 15.8958 131.484 13.5429 133.084 13.1665C135.155 12.6018 137.413 12.5077 139.39 13.2606C140.613 13.6371 141.084 14.9546 141.272 15.9899C141.837 15.9899 142.401 15.9899 143.06 15.9899C143.06 14.8605 142.684 13.6371 141.743 12.8842C140.237 11.6607 138.166 11.5666 136.378 11.5666C134.778 11.4725 132.99 11.4725 131.39 12.3195Z" fill="#269383"/>
<path id="Vector_2" d="M64.2874 12.79C63.3462 11.943 61.9345 11.6606 60.7111 11.6606C57.9818 11.6606 55.2525 11.7548 52.5232 11.7548C52.5232 16.5545 52.5232 21.4484 52.5232 26.2482C52.9938 26.2482 53.4643 26.2482 53.9349 26.2482C53.9349 24.1777 53.8408 22.1072 53.9349 20.1308C56.2877 20.1308 58.5465 20.1308 60.8993 20.1308C62.5933 20.0367 64.5697 19.2838 65.2285 17.5898C65.7932 15.9899 65.605 13.9194 64.2874 12.79ZM63.5345 17.3074C63.0639 18.5309 61.6522 18.9074 60.4287 19.0015C58.2641 19.0956 56.0995 19.0015 54.029 19.0015C54.029 17.0251 54.029 14.9546 54.029 12.9782C56.0995 12.9782 58.17 12.9782 60.2405 12.9782C61.2757 12.9782 62.4992 13.1665 63.158 14.0135C63.8168 14.8605 63.9109 16.1781 63.5345 17.3074Z" fill="#193E53"/>
<path id="Vector_3" d="M163.483 11.7548C163.483 16.5545 163.483 21.3543 163.483 26.2482C167.624 26.2482 171.859 26.2482 176 26.2482C176 25.8718 176 25.4953 176 25.0247C172.424 24.9306 168.847 25.0247 165.177 24.9306C165.177 20.5073 165.177 16.084 165.177 11.6606C164.612 11.7548 164.048 11.7548 163.483 11.7548Z" fill="#269383"/>
<path id="Vector_4" d="M148.048 12.5078C150.119 11.4725 152.472 11.2843 154.73 11.4725C156.895 11.6607 159.06 12.4136 160.471 14.1077C162.259 15.99 162.636 19.0016 161.883 21.4485C161.507 22.8602 160.565 23.8955 159.53 24.8366C160.377 25.4013 161.224 25.966 162.071 26.6248C161.695 27.0012 161.318 27.2836 160.942 27.66C160.095 27.0953 159.248 26.4365 158.401 25.966C157.742 25.966 157.083 26.3424 156.33 26.5307C154.448 26.9071 152.378 26.9071 150.495 26.5307C148.425 26.1542 146.354 24.9307 145.225 23.0485C144.096 21.2603 144.001 18.9075 144.472 16.9311C145.037 14.9547 146.354 13.3548 148.048 12.5078ZM150.872 12.8842C148.895 13.3548 147.013 14.7665 146.354 16.7429C145.696 18.9075 145.884 21.4485 147.484 23.2367C148.895 24.8366 150.966 25.4954 153.036 25.4954C155.295 25.5895 157.742 24.9307 159.248 23.1426C161.318 20.5074 161.036 16.2723 158.307 14.2018C156.236 12.4137 153.413 12.3195 150.872 12.8842Z" fill="#269383"/>
<path id="Vector_5" d="M91.2038 13.6371C91.6744 13.6371 92.1449 13.6371 92.7096 13.6371C92.7096 14.6723 92.7096 15.7076 92.7096 16.7428C93.5566 16.7428 94.4037 16.7428 95.2507 16.7428C95.2507 17.1193 95.2507 17.4016 95.3448 17.7781C94.4978 17.7781 93.6508 17.7781 92.8037 17.7781C92.8037 19.8486 92.8037 21.8249 92.8037 23.8954C92.8037 24.366 92.8037 24.9307 93.2743 25.213C93.9331 25.4954 94.686 25.4013 95.4389 25.4013C95.4389 25.6836 95.4389 26.06 95.4389 26.3424C94.3096 26.4365 93.1802 26.5306 92.1449 26.06C91.4861 25.7777 91.2979 25.0248 91.392 24.366C91.392 22.2014 91.392 19.9427 91.392 17.7781C90.7332 17.7781 90.0744 17.7781 89.5098 17.7781C89.5098 17.4957 89.5098 17.1193 89.5098 16.8369C90.1686 16.8369 90.7332 16.8369 91.392 16.8369C91.2038 15.7076 91.2038 14.6723 91.2038 13.6371Z" fill="#193E53"/>
<path id="Vector_6" d="M75.0163 17.3075C73.3223 16.3664 71.2518 16.2723 69.3695 16.5546C67.7696 16.8369 66.2638 17.684 65.605 19.1898C64.9462 20.6956 64.9462 22.4837 65.6991 23.9896C66.5461 25.5895 68.3343 26.4365 70.0283 26.5306C72.1929 26.7188 74.6399 26.4365 76.2398 24.7425C77.9338 22.5779 77.5574 18.7192 75.0163 17.3075ZM74.734 24.366C73.887 25.213 72.6635 25.5895 71.5341 25.5895C70.2165 25.6836 68.8048 25.4013 67.8637 24.5542C66.6402 23.4249 66.452 21.5426 66.9226 19.9427C67.3931 18.531 68.7107 17.684 70.1224 17.4957C71.44 17.3075 72.9458 17.4016 74.1693 18.1545C75.1104 18.7192 75.581 19.7545 75.6751 20.7897C75.8634 22.1073 75.6751 23.4249 74.734 24.366Z" fill="#193E53"/>
<path id="Vector_7" d="M79.2514 17.3075C80.1926 16.6487 81.416 16.5546 82.5454 16.4604C84.1453 16.3663 85.9335 16.3663 87.2511 17.3075C88.004 17.778 88.2863 18.7192 88.3804 19.5662C87.8157 19.5662 87.3452 19.5662 86.7805 19.5662C86.6864 18.8133 86.404 18.1545 85.6511 17.778C84.3335 17.2134 82.9218 17.2134 81.5101 17.4957C80.6631 17.5898 79.6279 18.0604 79.6279 19.0956C79.5338 19.7544 80.1926 20.3191 80.8514 20.4132C82.6395 20.8838 84.5218 20.7897 86.3099 21.1661C87.1569 21.3543 88.004 21.7308 88.4745 22.3896C89.1333 23.4248 88.7569 25.0248 87.6275 25.5894C86.3099 26.3423 84.71 26.4365 83.2042 26.4365C81.7925 26.3423 80.1926 26.3423 78.9691 25.4953C78.2162 24.9306 77.9338 24.0836 77.8397 23.1425C78.4044 23.1425 78.9691 23.1425 79.4397 23.1425C79.4397 24.366 80.4749 25.213 81.6043 25.3071C83.2042 25.4953 84.9923 25.6836 86.4982 24.9306C87.5334 24.366 87.4393 22.6719 86.3099 22.2955C84.0512 21.6367 81.6043 21.8249 79.4397 21.072C77.9338 20.6014 77.9338 18.1545 79.2514 17.3075Z" fill="#193E53"/>
<path id="Vector_8" d="M99.7682 16.6486C101.274 16.2722 102.968 16.2722 104.474 16.7427C105.321 17.0251 105.98 17.6839 106.639 18.2486C106.639 17.6839 106.733 17.2133 106.733 16.7427C107.203 16.7427 107.674 16.7427 108.144 16.7427C108.238 19.6603 108.144 22.5778 108.238 25.4953C108.333 26.7188 108.05 28.0363 107.109 28.8834C105.886 30.0127 104.097 30.201 102.498 30.201C101.086 30.201 99.58 30.1068 98.2624 29.4481C97.4154 28.9775 96.9448 28.0364 96.7566 27.0952C97.2272 27.0952 97.6977 27.0952 98.1683 27.0952C98.4506 27.754 98.733 28.5069 99.3918 28.7893C100.427 29.2598 101.556 29.2598 102.686 29.2598C103.909 29.1657 105.321 28.9775 106.074 27.9422C106.827 26.907 106.639 25.5894 106.639 24.3659C105.133 25.9659 102.78 26.2482 100.709 25.9659C99.3918 25.7776 98.0742 25.3071 97.1331 24.2718C96.0978 22.9542 96.0037 21.1661 96.3802 19.6603C96.7566 18.1544 98.2624 17.0251 99.7682 16.6486ZM100.992 17.5898C99.9565 17.778 98.8271 18.2486 98.2624 19.1897C97.6036 20.3191 97.6036 21.8249 97.9801 22.9542C98.4506 24.1777 99.8623 24.8365 101.086 25.0247C102.686 25.2129 104.568 25.0247 105.697 23.8012C107.015 22.2013 106.827 19.472 105.133 18.2486C104.003 17.4015 102.403 17.4015 100.992 17.5898Z" fill="#193E53"/>
<path id="Vector_9" d="M112.662 16.837C113.791 16.3665 114.92 16.4606 116.05 16.4606C116.05 16.837 116.05 17.3076 116.05 17.684C114.826 17.684 113.509 17.4958 112.473 18.2487C111.532 18.9075 111.156 20.2251 111.156 21.3545C111.156 22.9544 111.156 24.6484 111.156 26.2484C110.685 26.2484 110.215 26.2484 109.744 26.2484C109.65 23.0485 109.65 19.9428 109.744 16.7429C110.215 16.7429 110.685 16.7429 111.25 16.7429C111.25 17.3076 111.25 17.8723 111.25 18.3428C111.626 17.7782 112.003 17.1194 112.662 16.837Z" fill="#193E53"/>
<path id="Vector_10" d="M116.614 18.8133C117.556 17.2134 119.532 16.5546 121.32 16.4605C123.202 16.3664 125.273 16.6487 126.59 18.0604C127.626 19.0016 127.908 20.4133 128.002 21.825C124.426 21.825 120.944 21.825 117.367 21.825C117.461 22.7661 117.744 23.8013 118.497 24.4601C119.908 25.6836 121.979 25.8718 123.673 25.4013C124.802 25.1189 125.743 24.2719 126.12 23.1425C126.685 23.1425 127.249 23.1425 127.72 23.1425C127.249 24.7425 125.838 25.8718 124.238 26.2483C122.073 26.7188 119.532 26.6247 117.65 25.3071C115.767 23.9896 115.391 20.8838 116.614 18.8133ZM119.344 18.0604C118.308 18.6251 117.744 19.7545 117.556 20.8838C120.567 20.8838 123.579 20.8838 126.59 20.8838C126.496 20.225 126.308 19.4721 125.838 19.0016C124.238 17.1193 121.32 16.9311 119.344 18.0604Z" fill="#193E53"/>
<path id="Vector_11" d="M24.8539 1.49646C23.0658 1.21412 21.1835 1.12001 19.3954 1.40235C18.3601 1.59057 17.3249 2.06114 16.4779 2.53171C13.5603 1.59057 10.2664 1.02589 7.25474 1.59057C5.09013 1.96703 3.01964 3.28461 1.89028 5.261C0.478581 7.61383 0.19624 10.4372 0.384467 13.1665C0.76092 16.1781 1.51383 19.1898 2.36085 22.1073C3.11375 24.6483 3.96077 27.1894 5.37247 29.4481C6.12538 30.6716 7.25474 31.9892 8.76056 32.3656C9.98403 32.648 11.2075 32.2715 12.1486 31.5186C12.6192 31.9892 13.1839 32.3656 13.8427 32.5539C15.6308 33.2127 17.6072 33.2127 19.3954 32.4598C19.4895 34.9067 19.3954 37.4478 20.3365 39.7065C20.713 40.8358 21.2776 41.8711 22.3129 42.5299C23.4422 43.2828 24.7598 43.3769 26.0774 43.1887C27.2068 43.0005 28.4302 42.624 29.3714 42.0593C30.4066 41.4005 31.2536 40.4594 31.7242 39.33C32.8536 36.789 32.9477 34.0597 33.0418 31.3304C35.677 31.5186 38.4063 30.8598 40.3826 29.0717C41.1356 28.4129 41.7943 27.3776 41.512 26.3424C41.2297 25.4013 40.1944 24.7425 39.2533 24.8366C38.218 24.9307 37.2769 25.213 36.2417 25.213C38.5004 21.2603 40.2885 17.0252 41.0414 12.6018C41.3238 10.7196 41.6061 8.8373 41.0414 6.95504C40.7591 5.91979 40.0062 5.07277 39.2533 4.31986C37.5592 2.62582 35.2064 1.49646 32.8536 1.02589C30.1243 0.461214 27.395 0.743554 24.8539 1.49646Z" fill="white"/>
<path id="Vector_12" d="M24.7598 2.6258C27.5832 1.77878 30.5949 1.49644 33.4183 2.34346C35.677 3.00225 37.7475 4.31984 39.1592 6.20211C39.7239 6.95501 39.9121 7.99026 39.9121 8.9314C40.0062 10.6254 39.6298 12.3195 39.2533 13.9194C38.2181 18.2486 36.3358 22.2955 33.983 26.06C35.3005 26.6247 36.8064 26.3424 38.1239 26.1541C38.6886 26.06 39.4415 25.8718 39.818 26.4365C40.1944 27.0012 39.818 27.66 39.4415 28.0364C37.4652 30.0128 34.4535 30.4834 31.8183 30.0128C31.536 32.3656 31.2537 34.7185 30.8772 37.1654C30.689 38.483 30.2184 39.8947 29.1832 40.7417C28.242 41.5887 26.9245 41.9652 25.701 42.1534C24.4775 42.3416 22.9717 42.2475 22.0306 41.3064C20.9953 40.3653 20.3365 38.9536 20.2424 37.636C19.9601 35.2831 19.9601 32.8362 19.9601 30.4834C18.8307 31.4245 17.3249 31.9892 15.8191 31.8951C14.7838 31.8009 13.5604 31.6127 12.8074 30.8598C12.3369 30.4834 12.431 29.7304 12.9016 29.354C13.7486 28.6952 14.8779 28.7893 15.8191 28.4129C16.572 28.2246 16.9484 27.4717 17.3249 27.0012C16.4779 26.907 15.6308 26.7188 14.9721 26.3424C13.8427 27.5658 12.7133 28.8834 11.6781 30.1069C11.0193 30.8598 10.1723 31.5186 9.13702 31.3304C8.00766 31.1422 7.16065 30.2951 6.50185 29.4481C5.27838 27.66 4.43136 25.5895 3.77256 23.519C2.73732 20.1309 1.8903 16.7428 1.41973 13.2606C1.13739 10.6254 1.41973 7.80203 2.92554 5.63743C4.14902 3.84927 6.21951 2.90814 8.29001 2.71991C11.1134 2.43757 13.9368 3.00225 16.572 3.94339C18.7366 2.53168 21.56 2.24935 24.1011 2.81403C24.3834 2.6258 24.5716 2.71991 24.7598 2.6258ZM26.8303 3.37871C27.395 3.75516 27.9597 4.0375 28.5244 4.41395C30.7831 5.91977 32.5713 8.08437 33.6065 10.5313C33.8888 11.2842 34.2653 11.943 34.1712 12.79C34.1712 14.39 33.6065 15.9899 33.7947 17.5898C33.983 19.2839 34.3594 21.072 33.8888 22.7661C33.7947 23.3307 33.4183 23.8954 33.23 24.4601C33.23 24.5542 33.3242 24.7424 33.3242 24.7424C33.5124 24.4601 33.7006 24.1778 33.8888 23.8954C35.677 20.9779 36.9946 17.7781 37.9357 14.4841C38.4063 12.6959 38.7827 10.8137 38.7827 8.9314C38.7827 8.17849 38.6886 7.33147 38.2181 6.67267C37.1828 5.35509 35.7711 4.31984 34.1712 3.66105C31.8183 2.90814 29.2773 2.81403 26.8303 3.37871ZM20.2424 3.56693C18.4543 3.75516 16.7602 4.79041 15.725 6.20211C14.3133 8.17849 13.6545 10.6254 13.4662 12.9783C14.9721 12.3195 16.572 11.6607 18.266 12.0371C19.3013 12.3195 20.1483 13.2606 20.3365 14.2959C20.8071 16.4605 21.0894 18.6251 20.6189 20.7897C20.2424 22.4837 19.2072 23.9895 18.8307 25.7777C19.3013 25.7777 19.7718 25.8718 20.1483 26.06C20.9953 26.5306 21.4659 27.4717 21.3718 28.4129C21.2777 30.7657 21.2777 33.1185 21.4659 35.4714C21.56 36.4125 21.56 37.4477 21.8423 38.3889C22.2188 39.5182 22.9717 40.6476 24.1952 40.9299C25.5128 41.1182 26.8303 40.7417 28.0538 40.177C29.1832 39.6124 29.7479 38.2948 29.9361 37.0713C30.3125 34.5302 30.5949 31.9892 30.8772 29.4481C30.9713 28.507 30.7831 27.5658 31.3478 26.7188C31.6301 26.1541 32.1948 25.9659 32.6654 25.6836C32.2889 25.1189 31.8183 24.5542 31.4419 23.9895C30.2184 21.3544 28.5244 18.9074 27.9597 16.084C27.7715 14.8605 27.8656 13.4488 28.9008 12.6018C30.0302 11.6607 31.536 11.7548 32.9477 11.7548C32.1007 9.40196 30.5949 7.33147 28.7126 5.82565C26.2657 4.0375 23.1599 3.19048 20.2424 3.56693ZM7.72532 3.75516C6.1254 4.0375 4.52547 4.97863 3.67845 6.48445C2.54909 8.46083 2.45498 10.7195 2.6432 12.8842C3.01966 15.7076 3.67845 18.531 4.52547 21.3544C5.27838 23.7072 6.03129 26.06 7.34887 28.1305C7.81944 28.8834 8.38412 29.6363 9.23114 29.9187C9.98405 30.1069 10.5487 29.4481 11.0193 28.9775C11.9604 27.7541 13.0898 26.6247 14.125 25.4012C12.6192 24.0836 11.8663 22.0132 12.0545 19.9427C12.2428 18.4368 12.3369 16.8369 12.2428 15.237C12.0545 13.0724 12.431 10.8137 13.0898 8.64905C13.5604 7.04913 14.4074 5.63743 15.5367 4.41395C12.9957 3.84927 10.2664 3.28459 7.72532 3.75516ZM29.6537 13.4488C28.9008 14.0135 28.9008 15.1429 29.0891 15.9899C29.6537 18.7192 31.2537 20.9779 32.383 23.4249C33.3242 21.6367 32.7595 19.5662 32.5713 17.5898C32.383 15.9899 32.8536 14.4841 32.9477 12.9783C31.9125 12.9783 30.689 12.79 29.6537 13.4488ZM13.3721 14.4841C13.3721 15.8017 13.4662 17.1193 13.3721 18.3427C13.278 19.4721 12.9957 20.6015 13.278 21.7308C13.6545 23.8013 15.4426 25.4953 17.6072 25.4953C17.8896 24.4601 18.266 23.4249 18.7366 22.4837C20.0542 19.9427 19.7718 17.0251 19.113 14.39C18.9248 13.6371 18.266 13.0724 17.5131 13.0724C16.0073 13.0724 14.5956 13.7312 13.3721 14.4841ZM32.4771 27.1894C32.1007 27.5658 32.1007 28.1305 32.1007 28.6011C32.9477 28.8834 33.8888 28.8834 34.83 28.7893C36.1476 28.6011 37.5593 28.2246 38.5945 27.1894C36.9946 27.3776 35.2064 27.7541 33.6065 27.0012C33.23 26.8129 32.7595 27.0012 32.4771 27.1894ZM16.9484 29.0717C16.0073 29.6363 14.8779 29.5422 14.0309 30.0128C15.9132 30.9539 18.6425 30.6716 19.9601 28.8834C20.6189 28.2246 19.9601 26.907 19.113 27.0012C18.1719 27.5658 17.7955 28.6011 16.9484 29.0717Z" fill="white"/>
<path id="Vector_13" d="M30.0301 13.8253C30.5948 13.4488 31.3477 13.4488 31.9124 13.6371C31.9124 14.39 30.9712 14.9547 30.3125 14.5782C30.1242 14.4841 29.7478 14.1076 30.0301 13.8253Z" fill="white"/>
<path id="Vector_14" d="M16.7601 13.9194C17.3248 13.7312 17.9836 13.8253 18.4542 14.2018C18.7365 14.4841 18.4542 14.9547 18.1718 15.0488C17.513 15.5194 16.4778 15.0488 16.3837 14.2959C16.3837 14.1077 16.5719 13.9194 16.7601 13.9194Z" fill="white"/>
<path id="Vector_15" d="M26.8303 3.37875C29.1832 2.81407 31.8183 2.90818 34.077 3.7552C35.677 4.31988 37.0887 5.44924 38.1239 6.76683C38.6886 7.42562 38.6886 8.27264 38.6886 9.02555C38.6886 10.9078 38.3122 12.696 37.8416 14.5782C36.9004 17.8722 35.5829 21.0721 33.7947 23.9896C33.6065 24.2719 33.4183 24.5543 33.23 24.8366C33.23 24.7425 33.1359 24.5543 33.1359 24.5543C33.3241 23.9896 33.7006 23.4249 33.7947 22.8602C34.2653 21.1662 33.8888 19.378 33.7006 17.684C33.5124 16.0841 34.077 14.4841 34.077 12.8842C34.1712 12.1313 33.7947 11.3784 33.5124 10.6255C32.383 8.17853 30.689 6.01392 28.4302 4.50811C28.0538 4.03754 27.395 3.7552 26.8303 3.37875Z" fill="#269383"/>
<path id="Vector_16" d="M20.2423 3.56693C23.1599 3.19048 26.2656 4.0375 28.6184 5.82565C30.5007 7.33147 32.1006 9.40196 32.8535 11.7548C31.536 11.7548 29.936 11.6607 28.8067 12.6018C27.7714 13.4488 27.6773 14.8605 27.8655 16.084C28.4302 19.0015 30.1243 21.4485 31.3477 23.9895C31.6301 24.6483 32.1006 25.1189 32.5712 25.6836C32.0065 25.9659 31.5359 26.1541 31.2536 26.7188C30.783 27.5658 30.9713 28.507 30.783 29.4481C30.5007 31.9892 30.2184 34.5302 29.8419 37.0713C29.6537 38.2948 29.089 39.6124 27.9596 40.177C26.8303 40.7417 25.4186 41.1182 24.101 40.9299C22.8775 40.7417 22.0305 39.5182 21.7482 38.3889C21.4658 37.4478 21.4658 36.4125 21.3717 35.4714C21.2776 33.1185 21.2776 30.7657 21.2776 28.4129C21.3717 27.4717 20.9011 26.5306 20.0541 26.06C19.6777 25.8718 19.2071 25.7777 18.7365 25.7777C19.113 24.0836 20.1482 22.5778 20.5247 20.7897C20.9953 18.6251 20.7129 16.4605 20.2423 14.2959C20.0541 13.2606 19.2071 12.3195 18.1719 12.0371C16.4778 11.6607 14.8779 12.2254 13.3721 12.9783C13.5603 10.6254 14.2191 8.17849 15.6308 6.20211C16.7602 4.79041 18.4542 3.84927 20.2423 3.56693Z" fill="#269383"/>
<path id="Vector_17" d="M7.72536 3.75518C10.3605 3.28461 12.9957 3.75518 15.5368 4.50809C14.4074 5.73156 13.5604 7.14326 13.0898 8.74319C12.431 10.8137 12.1487 13.0724 12.2428 15.3311C12.3369 16.9311 12.3369 18.4369 12.0546 20.0368C11.7722 22.0132 12.6193 24.0837 14.1251 25.4954C13.0898 26.7188 12.0546 27.8482 11.0193 29.0717C10.5488 29.6364 9.98408 30.201 9.23118 30.0128C8.38416 29.7305 7.81948 28.9776 7.34891 28.2247C6.03132 26.1542 5.27841 23.8013 4.52551 21.4485C3.67849 18.7192 3.01969 15.8958 2.64324 12.9783C2.45501 10.8137 2.54912 8.46085 3.67849 6.57858C4.52551 5.07277 6.03132 4.13163 7.72536 3.75518Z" fill="#269383"/>
<path id="Vector_18" d="M29.6537 13.4489C30.5948 12.7901 31.9124 12.8842 32.9476 12.9783C32.8535 14.4841 32.383 15.9899 32.5712 17.5898C32.7594 19.4721 33.23 21.5426 32.3829 23.4249C31.1595 20.9779 29.5595 18.7192 29.089 15.9899C28.9949 15.1429 28.9949 14.1077 29.6537 13.4489ZM30.0301 13.8253C29.7478 14.1076 30.0301 14.4841 30.3125 14.5782C30.9712 14.9547 31.9124 14.39 31.9124 13.6371C31.3477 13.4489 30.5948 13.4489 30.0301 13.8253Z" fill="#269383"/>
<path id="Vector_19" d="M13.3721 14.4841C14.5956 13.7311 16.0073 13.0723 17.419 13.1665C18.1719 13.1665 18.8307 13.7311 19.0189 14.4841C19.6777 17.1192 19.8659 20.0367 18.6424 22.5778C18.1719 23.5189 17.7954 24.5542 17.5131 25.5894C15.3485 25.5894 13.5603 23.8013 13.1839 21.8249C12.9015 20.6955 13.278 19.5662 13.278 18.4368C13.4662 17.0251 13.3721 15.8016 13.3721 14.4841ZM16.7602 13.9194C16.5719 14.0135 16.3837 14.1076 16.3837 14.2958C16.4778 15.0487 17.5131 15.5193 18.1719 15.0487C18.4542 14.8605 18.7365 14.4841 18.4542 14.2017C17.9836 13.8253 17.3248 13.7311 16.7602 13.9194Z" fill="#269383"/>
<path id="Vector_20" d="M32.477 27.1894C32.7594 27.0012 33.2299 26.7188 33.6064 27.0012C35.1122 27.8482 36.9004 27.3776 38.5944 27.1894C37.5592 28.1305 36.2416 28.6011 34.8299 28.7893C33.8887 28.8834 32.9476 28.9775 32.1006 28.6011C32.1006 28.1305 32.1006 27.5658 32.477 27.1894Z" fill="#269383"/>
<path id="Vector_21" d="M16.9484 29.0716C17.7954 28.6011 18.1719 27.5658 19.0189 27.0011C19.8659 26.907 20.6188 28.2246 19.8659 28.8834C18.5483 30.6715 15.819 31.048 13.9368 30.0128C14.8779 29.6363 16.0073 29.6363 16.9484 29.0716Z" fill="#269383"/>
<path id="Vector_22" d="M24.8539 1.49647C27.395 0.837681 30.1243 0.555341 32.7594 1.02591C35.1123 1.40236 37.371 2.62584 39.1592 4.31988C39.9121 5.07278 40.665 5.9198 40.9473 6.95505C41.512 8.83732 41.2296 10.7196 40.9473 12.6019C40.1003 17.0252 38.4062 21.2603 36.1475 25.213C37.1828 25.213 38.1239 24.9307 39.1592 24.8366C40.1003 24.7425 41.2296 25.4013 41.4179 26.3424C41.7002 27.3776 41.0414 28.4129 40.2885 29.0717C38.218 30.8598 35.3946 31.4245 32.8536 31.3304C32.6653 34.0597 32.6653 36.789 31.536 39.33C30.9713 40.4594 30.2184 41.4005 29.1831 42.0593C28.1479 42.7181 27.0185 43.0005 25.8892 43.1887C24.6657 43.3769 23.254 43.2828 22.1246 42.5299C21.0894 41.8711 20.5247 40.8359 20.1483 39.7065C19.3012 37.3537 19.3953 34.9067 19.2071 32.4598C17.419 33.2127 15.4426 33.2127 13.6544 32.5539C12.9956 32.3657 12.431 31.9892 11.9604 31.5186C11.0193 32.2715 9.79578 32.648 8.57231 32.3657C7.06649 31.9892 6.03125 30.6716 5.18423 29.4481C3.77253 27.1894 2.92551 24.6484 2.1726 22.1073C1.32558 19.1898 0.572672 16.2723 0.196219 13.1665C0.00799212 10.4372 0.196219 7.61384 1.70203 5.26101C2.83139 3.37874 4.90189 2.06115 7.0665 1.59059C10.1722 0.931793 13.3721 1.59059 16.2896 2.43761C17.2307 1.96704 18.1719 1.49647 19.2071 1.30825C21.1835 1.02591 23.0658 1.21413 24.8539 1.49647ZM24.7598 2.62583C24.5716 2.71995 24.2892 2.53172 24.101 2.53172C21.56 1.96704 18.7366 2.24938 16.5719 3.66108C13.9368 2.71995 11.1134 2.15527 8.28997 2.43761C6.21947 2.62584 4.05487 3.66108 2.92551 5.35512C1.41969 7.61384 1.23147 10.4372 1.41969 12.9783C1.89026 16.4605 2.73728 19.8486 3.77253 23.1425C4.52543 25.213 5.27834 27.2835 6.50181 29.0717C7.16061 29.9187 8.00763 30.8598 9.13699 30.954C10.1722 31.0481 11.0193 30.4834 11.678 29.7305C12.8074 28.4129 13.8427 27.1894 14.972 25.966C15.7249 26.3424 16.5719 26.5306 17.3249 26.6247C16.8543 27.1894 16.4778 27.8482 15.819 28.0364C14.8779 28.4129 13.7485 28.3188 12.9015 28.9776C12.431 29.354 12.3368 30.1069 12.8074 30.4834C13.5603 31.2363 14.7838 31.4245 15.819 31.5186C17.3249 31.6128 18.8307 31.1422 19.96 30.1069C19.96 32.4598 19.96 34.9067 20.2424 37.2596C20.3365 38.6713 20.9953 40.083 22.0305 40.93C22.9717 41.777 24.4775 41.9652 25.7009 41.777C26.9244 41.4947 28.242 41.1182 29.1831 40.3653C30.2184 39.4242 30.689 38.1066 30.8772 36.789C31.2536 34.4362 31.536 32.0833 31.8183 29.6364C34.4535 30.1069 37.4651 29.5423 39.4415 27.66C39.818 27.2835 40.2885 26.5306 39.8179 26.0601C39.4415 25.5895 38.6886 25.6836 38.1239 25.7777C36.8063 26.0601 35.3005 26.3424 33.9829 25.6836C36.3358 21.9191 38.218 17.8722 39.2533 13.543C39.6297 11.9431 39.9121 10.249 39.9121 8.55498C39.818 7.61384 39.7238 6.5786 39.1592 5.82569C37.7475 3.94342 35.677 2.62584 33.4182 1.96704C30.689 1.59059 27.5832 1.77881 24.7598 2.62583Z" fill="#193E53"/>
</g>
</svg>
