<svg width="135" height="74" viewBox="0 0 135 74" fill="none" xmlns="http://www.w3.org/2000/svg">
<g id="Group 13">
<g id="Clip path group">
<mask id="mask0_33_3625" style="mask-type:luminance" maskUnits="userSpaceOnUse" x="67" y="0" width="18" height="41">
<g id="clip-path">
<path id="Vector" d="M84.6172 10.4344L67.7606 0.803223V40.2789L74.4949 36.371V25.2639L79.5809 28.2079L79.5521 20.609L74.4949 17.7199V13.3079L84.6407 19.1696L84.6172 10.4344Z" fill="white"/>
</g>
</mask>
<g mask="url(#mask0_33_3625)">
<g id="Group">
<path id="Vector_2" d="M89.2278 0.659546H47.8321V40.3285H89.2278V0.659546Z" fill="url(#paint0_linear_33_3625)"/>
</g>
</g>
</g>
<g id="Clip path group_2">
<mask id="mask1_33_3625" style="mask-type:luminance" maskUnits="userSpaceOnUse" x="49" y="0" width="18" height="41">
<g id="clip-path-2">
<path id="Vector_3" d="M49.389 10.4344L66.2456 0.803223V40.2789L59.5113 36.371V13.3079L49.3655 19.1696L49.389 10.4344Z" fill="white"/>
</g>
</mask>
<g mask="url(#mask1_33_3625)">
<g id="Group_2">
<path id="Vector_4" d="M88.9483 0.659546H47.5526V40.3285H88.9483V0.659546Z" fill="url(#paint1_linear_33_3625)"/>
</g>
</g>
</g>
<path id="Vector_5" d="M15.4773 56.1507H9.38566V72.9289H6.02897V56.1507H0V53.4183H15.4773V56.1507Z" fill="#193E53"/>
<path id="Vector_6" d="M19.5132 73.1953C17.4496 73.1953 15.7769 72.5457 14.4951 71.2466C13.2134 69.9474 12.5726 68.2164 12.5726 66.0535V65.6591C12.5495 64.319 12.8356 62.9916 13.4085 61.7799C13.9245 60.6888 14.7398 59.7666 15.7595 59.1207C16.7697 58.486 17.9414 58.1558 19.1344 58.1699C21.1093 58.1699 22.6348 58.7994 23.711 60.0585C24.7872 61.3176 25.3236 63.0974 25.3201 65.3978V66.7039H15.8535C15.9528 67.9038 16.3533 68.8512 17.0551 69.546C17.4019 69.8911 17.8154 70.1617 18.2704 70.3414C18.7254 70.5211 19.2123 70.606 19.7013 70.5909C20.4082 70.6053 21.1083 70.4495 21.7425 70.1367C22.3767 69.824 22.9264 69.3634 23.3453 68.7937L25.1007 70.4681C24.5195 71.3357 23.7168 72.0319 22.7758 72.4848C21.7581 72.9714 20.6411 73.2147 19.5132 73.1953ZM19.124 60.7742C18.7164 60.7597 18.3107 60.8364 17.9365 60.9986C17.5623 61.1609 17.2291 61.4046 16.9611 61.712C16.409 62.3355 16.0607 63.2062 15.9162 64.3242H22.1202V64.0917C22.0488 63.0033 21.7588 62.1796 21.2503 61.6206C20.9787 61.3335 20.6477 61.109 20.2805 60.9628C19.9133 60.8167 19.5186 60.7523 19.124 60.7742Z" fill="#193E53"/>
<path id="Vector_7" d="M30.8763 58.4284L30.9703 60.1029C31.4766 59.4756 32.121 58.9741 32.8534 58.6374C33.5857 58.3006 34.386 58.1379 35.1917 58.162C38.2114 58.162 39.7473 59.8904 39.7996 63.3472V72.9288H36.5526V63.5249C36.5526 62.6027 36.3541 61.9236 35.957 61.4795C35.56 61.0354 34.9122 60.816 34.0057 60.816C32.6944 60.816 31.7166 61.4107 31.0722 62.6001V72.9184H27.807V58.4284H30.8763Z" fill="#193E53"/>
<path id="Vector_8" d="M50.366 68.9897C50.3772 68.7246 50.3167 68.4613 50.1907 68.2277C50.0647 67.9941 49.878 67.7989 49.6502 67.6627C49.1713 67.3562 48.3781 67.088 47.2705 66.8582C46.3138 66.6746 45.3824 66.3773 44.4963 65.9726C42.8715 65.1872 42.0591 64.0483 42.0591 62.5558C42.0538 61.9466 42.193 61.3448 42.4655 60.7999C42.738 60.2549 43.1358 59.7824 43.6265 59.4212C44.6818 58.5801 46.0219 58.1604 47.6466 58.1621C49.3777 58.1621 50.7778 58.5905 51.8471 59.4473C52.3609 59.8366 52.7751 60.3421 53.0557 60.9224C53.3363 61.5027 53.4754 62.1413 53.4614 62.7857H50.2066C50.2136 62.4891 50.1547 62.1947 50.0341 61.9236C49.9135 61.6526 49.7342 61.4117 49.5092 61.2184C48.9934 60.7845 48.3329 60.5615 47.6597 60.5941C47.0388 60.5662 46.4257 60.7403 45.9121 61.0904C45.6977 61.2378 45.5233 61.4363 45.4047 61.668C45.2861 61.8997 45.2271 62.1572 45.233 62.4174C45.2264 62.6501 45.2814 62.8803 45.3924 63.0849C45.5035 63.2895 45.6665 63.4611 45.8651 63.5824C46.2831 63.8593 47.1312 64.1388 48.4094 64.421C49.4524 64.6224 50.4642 64.9605 51.4187 65.4267C52.0701 65.7472 52.6286 66.2292 53.0409 66.8268C53.4055 67.4222 53.5872 68.1117 53.5633 68.8095C53.5744 69.4303 53.4321 70.0443 53.1492 70.597C52.8662 71.1497 52.4513 71.6241 51.9411 71.9781C50.8631 72.7879 49.4473 73.1919 47.6937 73.1901C46.6015 73.21 45.5182 72.9907 44.5198 72.5475C43.6488 72.1665 42.8983 71.5551 42.3491 70.7791C41.8414 70.0716 41.5675 69.2231 41.5654 68.3523H44.7288C44.7319 68.6946 44.8116 69.0318 44.9622 69.3392C45.1127 69.6466 45.3302 69.9163 45.5987 70.1286C46.2191 70.5698 46.9698 70.7897 47.7302 70.753C48.587 70.753 49.2392 70.5893 49.6868 70.2619C49.8973 70.1235 50.0697 69.9345 50.1884 69.7123C50.307 69.49 50.3681 69.2416 50.366 68.9897Z" fill="#193E53"/>
<path id="Vector_9" d="M55.2456 65.5442C55.224 64.216 55.513 62.9011 56.0893 61.7043C56.6057 60.6157 57.4305 59.7028 58.4612 59.079C59.5247 58.4558 60.7396 58.1385 61.972 58.1621C63.9294 58.1621 65.5168 58.7917 66.7341 60.0507C67.9513 61.3098 68.6105 62.9799 68.7115 65.061L68.7246 65.8263C68.7467 67.1501 68.4643 68.4612 67.8991 69.6584C67.3882 70.7406 66.5707 71.6489 65.5481 72.2706C64.4747 72.9005 63.2477 73.2206 62.0034 73.1954C59.9571 73.1954 58.3201 72.5145 57.0924 71.1526C55.8647 69.7908 55.2508 67.9753 55.2508 65.7062L55.2456 65.5442ZM58.4952 65.8263C58.4952 67.3188 58.8034 68.4864 59.4199 69.3293C59.709 69.7384 60.0959 70.0687 60.5453 70.29C60.9947 70.5113 61.4924 70.6165 61.9929 70.5962C62.4942 70.6161 62.9924 70.5087 63.441 70.2839C63.8895 70.0592 64.2739 69.7245 64.5581 69.311C65.1711 68.4507 65.4776 67.1951 65.4776 65.5442C65.4776 64.0779 65.1624 62.9163 64.532 62.0595C64.2369 61.6622 63.8532 61.3391 63.4114 61.1159C62.9697 60.8928 62.482 60.7757 61.987 60.7739C61.4921 60.7721 61.0036 60.8857 60.5602 61.1057C60.1169 61.3257 59.7309 61.646 59.4329 62.0412C58.8078 62.8859 58.4952 64.1476 58.4952 65.8263Z" fill="#193E53"/>
<path id="Vector_10" d="M78.5203 61.4038C78.0825 61.3321 77.6396 61.2963 77.1959 61.2967C75.7017 61.2967 74.696 61.8688 74.1788 63.0129V72.9393H70.924V58.4285H74.0325L74.1135 60.0507C74.8989 58.7916 75.9882 58.1621 77.3814 58.1621C77.7737 58.1502 78.1646 58.2131 78.5334 58.3475L78.5203 61.4038Z" fill="#193E53"/>
<path id="Vector_11" d="M92.1352 64.6613H84.2829V72.9289H80.887V53.4183H93.2819V56.1507H84.2829V61.9524H92.1352V64.6613Z" fill="#193E53"/>
<path id="Vector_12" d="M98.569 72.9289H95.3116V53.3817H98.569V72.9289Z" fill="#193E53"/>
<path id="Vector_13" d="M100.954 65.5442C100.934 64.2161 101.223 62.9015 101.798 61.7043C102.315 60.6162 103.139 59.7036 104.17 59.079C105.233 58.4558 106.448 58.1385 107.68 58.1621C109.636 58.1621 111.224 58.7917 112.445 60.0507C113.666 61.3098 114.325 62.9799 114.422 65.061V65.8263C114.451 67.149 114.174 68.4603 113.613 69.6584C113.103 70.7418 112.286 71.6505 111.262 72.2706C110.189 72.9008 108.963 73.221 107.72 73.1954C105.672 73.1954 104.034 72.5145 102.806 71.1526C101.578 69.7908 100.969 67.9753 100.977 65.7062L100.954 65.5442ZM104.209 65.8263C104.209 67.3188 104.517 68.4864 105.133 69.3293C105.435 69.7249 105.825 70.0452 106.272 70.2651C106.718 70.485 107.209 70.5985 107.707 70.5967C108.205 70.595 108.695 70.478 109.14 70.2549C109.585 70.0318 109.972 69.7088 110.272 69.311C110.883 68.4507 111.189 67.1951 111.189 65.5442C111.189 64.0779 110.874 62.9163 110.246 62.0595C109.958 61.649 109.572 61.3166 109.124 61.0922C108.676 60.8678 108.179 60.7586 107.678 60.7743C107.184 60.7596 106.694 60.8677 106.252 61.0888C105.811 61.3099 105.431 61.6372 105.147 62.0412C104.521 62.8859 104.209 64.1476 104.209 65.8263Z" fill="#193E53"/>
<path id="Vector_14" d="M129.129 68.4384L131.433 58.4285H134.61L130.657 72.9288H127.98L124.871 62.9711L121.815 72.9288H119.132L115.18 58.4285H118.356L120.707 68.3313L123.683 58.4285H126.136L129.129 68.4384Z" fill="#193E53"/>
</g>
<defs>
<linearGradient id="paint0_linear_33_3625" x1="47.8321" y1="20.494" x2="89.2278" y2="20.494" gradientUnits="userSpaceOnUse">
<stop stop-color="#43F5CF"/>
<stop offset="1" stop-color="#2A9E8C"/>
</linearGradient>
<linearGradient id="paint1_linear_33_3625" x1="47.5526" y1="20.494" x2="88.9483" y2="20.494" gradientUnits="userSpaceOnUse">
<stop stop-color="#43F5CF"/>
<stop offset="1" stop-color="#2A9E8C"/>
</linearGradient>
</defs>
</svg>
