<svg width="156" height="58" viewBox="0 0 156 58" fill="none" xmlns="http://www.w3.org/2000/svg">
<g id="Group 19">
<path id="Vector" d="M92.1851 15.3569V15.3697C92.1077 15.3697 92.0298 15.3826 91.9523 15.3826C91.8749 15.3826 91.797 15.3697 91.7196 15.3697C87.1035 15.3697 84.2458 18.2535 84.2458 22.8824V25.1582C84.2458 29.619 87.1424 32.3864 91.7842 32.3864C91.8792 32.3888 91.9743 32.3845 92.0687 32.3735C92.1333 32.3735 92.1851 32.3864 92.2497 32.3864C95.3657 32.3864 97.5384 31.2487 98.9216 28.8951L96.1675 27.3043C95.2494 28.6619 94.021 29.6836 92.2625 29.6836C89.9093 29.6836 88.5 28.2353 88.5 25.7914V25.1449H99.4133V22.4554C99.4133 18.1367 96.5817 15.3569 92.1851 15.3569ZM91.9523 18.0079C94.0989 18.1115 95.3919 19.5336 95.3919 21.874V22.5205H88.4872V22.1452C88.4872 19.5593 89.7155 18.1115 91.9523 18.0079ZM75.0008 15.3697C72.9449 15.3697 71.1736 16.2233 70.2426 17.6455L70.0099 18.0074V15.7573H66.1048V37.5972H70.2037V29.9686L70.4364 30.3177C71.3157 31.6235 73.0357 32.3992 75.0397 32.3992H75.1433H75.2335C78.6084 32.3992 82.009 30.2009 82.009 25.2746V22.5076C82.009 18.9646 79.9142 15.383 75.2074 15.383L75.1817 15.3702H75.0915L75.0008 15.3697ZM74.0441 18.4473C76.4234 18.4862 77.8973 20.1022 77.8973 22.6886V25.0675C77.8973 27.6534 76.4101 29.257 74.0051 29.3088C71.7683 29.2699 70.2037 27.5632 70.2037 25.1321V22.6882C70.2037 20.2314 71.7812 18.4991 74.0441 18.4473ZM127.162 9.97792L119.275 32.0116H123.71L125.223 27.2919H133.834V27.3437L135.347 32.0244H139.782L131.882 9.99075H131.416L131.404 9.97792H127.162ZM129.516 13.7666L132.813 24.1759H126.192L129.516 13.7666ZM155.648 13.0811V9.97792H142.123V13.0811H146.868V28.8822H142.123V31.9855H155.648V28.8822H150.903V13.0811H155.648ZM111.141 15.3702H111.025H110.96C108.672 15.3702 107.042 16.1459 106.241 17.6331L105.995 18.0858V15.7583H102.09V31.9987H106.189V22.3267C106.189 20.0509 107.417 18.7451 109.538 18.7062C111.568 18.7451 112.731 20.0253 112.731 22.2364V31.9987H116.83V21.5377C116.83 17.6716 114.71 15.3697 111.154 15.3697L111.141 15.3702ZM52.9282 9.52525C46.8894 9.52525 43.1269 13.2882 43.1269 19.3526V22.624C43.1269 28.6884 46.8766 32.451 52.9282 32.451H53.0189H53.1091C59.1479 32.451 62.9104 28.6884 62.9104 22.624V19.3526C62.9104 13.2882 59.1479 9.52525 53.1091 9.52525H53.0189H52.9282ZM53.0189 12.8099C56.6137 12.8489 58.6824 15.1503 58.6824 19.1327V22.8568C58.6824 26.8392 56.6137 29.1411 53.0189 29.1796C49.424 29.1406 47.3549 26.8392 47.3549 22.8568V19.1327C47.3549 15.1503 49.424 12.8484 53.0189 12.8099ZM17.3179 0.500109C13.1411 0.500109 9.43037 3.1896 8.13695 7.15923C6.80958 7.43284 5.55571 7.98603 4.45879 8.78196C3.36186 9.57789 2.44703 10.5983 1.77518 11.7753C-0.319596 15.3958 0.158739 19.9474 2.96506 23.0506C2.09865 25.6498 2.39601 28.4942 3.7797 30.8478C5.86165 34.4811 10.0507 36.3432 14.15 35.4768C15.0476 36.4897 16.1508 37.2997 17.386 37.8526C18.6213 38.4056 19.9602 38.6889 21.3136 38.6835C25.4903 38.6835 29.2011 35.994 30.4945 32.0244C33.184 31.4682 35.4987 29.7871 36.8435 27.4083C38.9511 23.7878 38.4727 19.2363 35.6669 16.133V16.1202C36.0949 14.8354 36.2436 13.4741 36.1031 12.1272C35.9626 10.7803 35.5362 9.47896 34.8522 8.31017C32.7698 4.68967 28.5803 2.82718 24.4943 3.69359C23.5926 2.68327 22.4865 1.8761 21.2493 1.32554C20.0121 0.774991 18.672 0.493633 17.3179 0.500109ZM17.3179 2.98296L17.305 2.99579C18.9861 2.99579 20.6025 3.57767 21.8955 4.65118C21.8437 4.67684 21.7402 4.74144 21.6627 4.78038L14.0598 9.16375C13.6717 9.38367 13.439 9.7974 13.439 10.2501V20.5425L10.1676 18.6548V10.1465C10.1668 8.24867 10.9195 6.42813 12.2602 5.08485C13.6009 3.74157 15.42 2.98588 17.3179 2.98296ZM26.4768 5.97943C27.7367 5.97701 28.975 6.30725 30.0664 6.93678C31.1578 7.56631 32.0636 8.47281 32.6924 9.56465C33.5199 11.0129 33.83 12.7068 33.5455 14.3489C33.4937 14.31 33.3907 14.2587 33.3256 14.2197L25.7226 9.82306C25.5314 9.71489 25.3154 9.65804 25.0956 9.65804C24.8759 9.65804 24.6599 9.71489 24.4686 9.82306L15.5594 14.9693V11.1935L22.9168 6.93931C23.9985 6.31214 25.2264 5.98092 26.4768 5.97897V5.97943ZM7.6719 9.88766V18.9261C7.6719 19.3788 7.90465 19.7797 8.29273 20.0124L17.1887 25.1458L13.904 27.0463L6.55945 22.805C4.91811 21.8538 3.72126 20.2902 3.23162 18.4574C2.74199 16.6246 2.99958 14.6724 3.94785 13.0294C4.78437 11.5794 6.10183 10.4682 7.6719 9.88766ZM24.7142 12.1245L32.0716 16.3658C35.4983 18.3442 36.6616 22.7147 34.6832 26.1414L34.696 26.1543C33.8557 27.6026 32.5366 28.7145 30.9719 29.2836V20.2447C30.9719 19.792 30.7392 19.3783 30.3511 19.1588L21.4424 14.0122L24.7142 12.1245ZM19.3091 15.241L23.0593 17.4132V21.7448L19.3091 23.917L15.5594 21.7448V17.4132L19.3091 15.241ZM25.2054 18.6548L28.4767 20.5425V29.038C28.4767 32.9948 25.27 36.2016 21.3264 36.2016V36.1888C19.6582 36.1888 18.029 35.6069 16.7488 34.5338C16.8006 34.5082 16.917 34.4431 16.9816 34.4042L24.5845 30.0208C24.9726 29.8009 25.2182 29.3871 25.2049 28.9345L25.2054 18.6548ZM23.0716 24.2148V27.9902L15.7142 32.2315C12.2876 34.1971 7.91702 33.0333 5.93862 29.6194H5.95145C5.11116 28.184 4.81334 26.4773 5.09787 24.8352C5.14964 24.8741 5.25319 24.9254 5.31779 24.9644L12.9208 29.361C13.112 29.4692 13.328 29.5261 13.5478 29.5261C13.7675 29.5261 13.9835 29.4692 14.1748 29.361L23.0716 24.2148Z" fill="#193E53"/>
<g id="GYM">
<path d="M87.2787 47.709V56.5337C85.2703 57.1779 83.2305 57.4999 81.1594 57.4999C78.5705 57.4999 76.5856 56.7471 75.2049 55.2414C73.8398 53.7279 73.1573 51.578 73.1573 48.7917C73.1573 46.0054 73.9497 43.8438 75.5344 42.3071C77.127 40.7703 79.3315 40.002 82.1479 40.002C83.9131 40.002 85.6155 40.3512 87.2551 41.0497L86.0431 43.937C84.7721 43.3161 83.4659 43.0056 82.1244 43.0056C80.5475 43.0056 79.2844 43.5334 78.3351 44.5889C77.3859 45.6367 76.9112 47.0648 76.9112 48.8732C76.9112 50.6738 77.2917 52.0631 78.0527 53.041C78.8215 54.0112 79.9356 54.4963 81.3948 54.4963C82.1322 54.4963 82.905 54.4187 83.713 54.2635V50.7126H80.4533V47.709H87.2787Z" fill="#193E53"/>
<path d="M98.5523 57.2671H94.9278V50.7592L89.2204 40.2464H93.1744L96.74 47.2549L100.329 40.2464H104.26L98.5523 50.6428V57.2671Z" fill="#193E53"/>
<path d="M124.818 57.2671H121.417V49.2108C121.417 48.6675 121.421 48.2368 121.429 47.9185C121.437 47.6003 121.492 46.2731 121.594 43.937H121.488L117.051 57.2671H113.709L109.567 43.9137H109.461C109.61 46.5603 109.685 48.3726 109.685 49.3505V57.2671H106.425V40.2464H111.391L115.463 53.2622H115.533L119.852 40.2464H124.818V57.2671Z" fill="#193E53"/>
</g>
</g>
</svg>
