<svg width="125" height="38" viewBox="0 0 125 38" fill="none" xmlns="http://www.w3.org/2000/svg">
<g id="Group 14">
<path id="Vector" d="M0.772339 0.22998H38.3123V37.77H0.772339V0.22998Z" fill="#44F2C1"/>
<path id="Vector_2" d="M14.7307 29.2066V22.2373L17.5606 19.4162L24.6599 29.9072L27.9116 29.9327L28.512 28.7072L20.2509 16.723L27.856 8.99109L27.435 7.76514H24.19L14.7307 17.2219V8.48708L14.0392 7.76514H11.6906L10.999 8.48698V29.1762L11.7273 29.9164L13.9905 29.9073L14.7307 29.2066Z" fill="white"/>
<g id="Group">
<path id="Vector_3" d="M49.8876 7.76514H52.6907V18.8764H52.792L62.012 7.76514H65.1867L58.2632 16.2083L66.2674 29.92H63.1265L56.5069 18.4037L52.6906 22.8954V29.9201H49.8875V7.76514H49.8876ZM67.7196 21.7471C67.7196 20.3961 67.9278 19.1858 68.3444 18.1164C68.7609 17.047 69.3125 16.1407 69.9992 15.3977C70.6859 14.6548 71.4683 14.0862 72.3464 13.6922C73.2245 13.2983 74.1364 13.1012 75.082 13.1012C76.1176 13.1012 77.0465 13.2814 77.8683 13.6416C78.6901 14.0019 79.3767 14.5197 79.9284 15.1951C80.48 15.8705 80.9023 16.6811 81.1948 17.6267C81.4876 18.5724 81.6339 19.6306 81.6339 20.8014C81.6339 21.4093 81.6001 21.9159 81.5326 22.3212H70.4551C70.5677 24.0998 71.1137 25.5071 72.0931 26.5427C73.0726 27.5784 74.3503 28.0963 75.9264 28.0963C76.7144 28.0963 77.4405 27.978 78.1047 27.7417C78.773 27.5033 79.4129 27.1918 80.0128 26.8129L80.9922 28.6367C80.2717 29.087 79.4725 29.4809 78.5944 29.8187C77.7162 30.1563 76.7144 30.3253 75.5886 30.3253C74.4854 30.3253 73.4553 30.1282 72.4984 29.7343C71.5415 29.3402 70.7084 28.7774 69.9992 28.0456C69.29 27.3139 68.7327 26.4189 68.3275 25.3607C67.9222 24.3024 67.7196 23.098 67.7196 21.7471ZM79.2022 20.4974C79.2022 18.8088 78.8477 17.5198 78.1384 16.6305C77.4291 15.741 76.4329 15.2964 75.1495 15.2964C74.5642 15.2964 74.0069 15.4147 73.4777 15.651C72.9486 15.8874 72.4702 16.2252 72.0425 16.6642C71.6147 17.1033 71.2601 17.6436 70.9786 18.2853C70.6972 18.927 70.5114 19.6644 70.4213 20.4974H79.2022ZM85.6866 13.5065H87.9832L88.2196 16.4785H88.3209C88.8838 15.4428 89.5649 14.621 90.3641 14.013C91.1635 13.4051 92.0359 13.1012 92.9816 13.1012C93.6344 13.1012 94.2199 13.2137 94.7378 13.4389L94.1973 15.8705C93.9272 15.7805 93.6795 15.713 93.4544 15.6679C93.2293 15.6229 92.9478 15.6004 92.6101 15.6004C91.9121 15.6004 91.1859 15.8818 90.4318 16.4447C89.6775 17.0075 89.0189 17.9869 88.456 19.383V29.92H85.6867V13.5066L85.6866 13.5065ZM95.7509 25.6647C95.7509 23.8635 96.5559 22.4843 98.1656 21.5275C99.7754 20.5706 102.337 19.9008 105.85 19.518C105.85 19.0002 105.798 18.4936 105.697 17.9983C105.595 17.5029 105.416 17.0638 105.157 16.6811C104.897 16.2984 104.554 15.9888 104.127 15.7523C103.699 15.516 103.147 15.3977 102.472 15.3977C101.504 15.3977 100.609 15.5778 99.7868 15.9382C98.965 16.2984 98.2276 16.7036 97.5746 17.1539L96.4601 15.2289C97.2256 14.7335 98.1601 14.255 99.2633 13.7935C100.367 13.332 101.582 13.1012 102.911 13.1012C104.915 13.1012 106.367 13.7148 107.267 14.9419C108.168 16.169 108.618 17.8068 108.618 19.8558V29.92H106.322L106.085 27.9612H106.018C105.233 28.6118 104.378 29.1726 103.468 29.633C102.556 30.0945 101.594 30.3253 100.58 30.3253C99.1845 30.3253 98.0306 29.92 97.1187 29.1095C96.2068 28.2989 95.7509 27.1507 95.7509 25.6647ZM98.4865 25.462C98.4865 26.4076 98.7624 27.0832 99.314 27.4883C99.8655 27.8936 100.547 28.0963 101.357 28.0963C102.145 28.0963 102.894 27.9105 103.603 27.539C104.312 27.1676 105.062 26.6216 105.85 25.9012V21.3418C104.475 21.5219 103.316 21.7357 102.37 21.9834C101.425 22.2311 100.665 22.5239 100.091 22.8615C99.5165 23.1992 99.1057 23.5876 98.858 24.0267C98.6103 24.4657 98.4865 24.9442 98.4865 25.462ZM113.414 26.205C114.134 26.7904 114.872 27.2633 115.626 27.6235C116.38 27.9837 117.253 28.1639 118.243 28.1639C119.325 28.1639 120.135 27.9162 120.676 27.4208C121.216 26.9255 121.486 26.3176 121.486 25.5971C121.486 25.1693 121.373 24.7978 121.148 24.4826C120.923 24.1674 120.636 23.8916 120.286 23.6551C119.938 23.4188 119.538 23.2104 119.088 23.0304L117.737 22.49C117.142 22.2835 116.556 22.0525 115.98 21.7977C115.395 21.5387 114.872 21.2235 114.41 20.8521C113.949 20.4804 113.572 20.0471 113.278 19.5518C112.986 19.0564 112.84 18.4598 112.84 17.7618C112.84 17.1089 112.97 16.4954 113.228 15.9212C113.487 15.347 113.859 14.8518 114.343 14.4353C114.827 14.0187 115.417 13.6922 116.116 13.4558C116.814 13.2194 117.602 13.1012 118.48 13.1012C119.516 13.1012 120.467 13.2814 121.333 13.6416C122.201 14.0019 122.949 14.4408 123.58 14.9587L122.262 16.715C121.699 16.2871 121.114 15.9382 120.507 15.6679C119.898 15.3977 119.234 15.2626 118.514 15.2626C117.478 15.2626 116.718 15.4991 116.235 15.9719C115.75 16.4447 115.508 16.9963 115.508 17.6267C115.508 18.0095 115.61 18.3416 115.812 18.623C116.014 18.9045 116.285 19.1522 116.623 19.3661C116.96 19.5799 117.349 19.7713 117.787 19.9402C118.227 20.109 118.683 20.2835 119.156 20.4637C119.75 20.6924 120.341 20.9288 120.929 21.1729C121.526 21.4205 122.06 21.7302 122.533 22.1016C123.006 22.4731 123.394 22.9291 123.697 23.4694C124.002 24.0099 124.154 24.6627 124.154 25.4282C124.154 26.1037 124.025 26.7341 123.766 27.3195C123.506 27.905 123.124 28.4228 122.617 28.873C122.111 29.3233 121.48 29.6781 120.726 29.9369C119.972 30.1959 119.11 30.3253 118.143 30.3253C116.971 30.3253 115.857 30.1114 114.799 29.6836C113.74 29.2558 112.818 28.7154 112.029 28.0626L113.414 26.205Z" fill="#193E53"/>
</g>
</g>
</svg>
