<svg width="1440" height="8" viewBox="0 0 1440 8" fill="none" xmlns="http://www.w3.org/2000/svg">
<path fill-rule="evenodd" clip-rule="evenodd" d="M0 0H88C69.7178 0 56.8589 2 44 4C31.1411 6 18.2822 8 0 8V0Z" fill="#DFF0ED"/>
<path fill-rule="evenodd" clip-rule="evenodd" d="M176 0H88C106.282 0 119.141 2 132 4C144.859 6 157.718 8 176 8V0Z" fill="#DFF0ED"/>
<path fill-rule="evenodd" clip-rule="evenodd" d="M176 0H264C245.718 0 232.859 2 220 4C207.141 6 194.282 8 176 8V0Z" fill="#DFF0ED"/>
<path fill-rule="evenodd" clip-rule="evenodd" d="M352 0H264C282.282 0 295.141 2 308 4C320.859 6 333.718 8 352 8V0Z" fill="#DFF0ED"/>
<path fill-rule="evenodd" clip-rule="evenodd" d="M352 0H440C421.718 0 408.859 2 396 4C383.141 6 370.282 8 352 8V0Z" fill="#DFF0ED"/>
<path fill-rule="evenodd" clip-rule="evenodd" d="M528 0H440C458.282 0 471.141 2 484 4C496.859 6 509.718 8 528 8V0Z" fill="#DFF0ED"/>
<path fill-rule="evenodd" clip-rule="evenodd" d="M528 0H616C597.718 0 584.859 2 572 4C559.141 6 546.282 8 528 8V0Z" fill="#DFF0ED"/>
<path fill-rule="evenodd" clip-rule="evenodd" d="M704 0H616C634.282 0 647.141 2 660 4C672.859 6 685.718 8 704 8V0Z" fill="#DFF0ED"/>
<path fill-rule="evenodd" clip-rule="evenodd" d="M704 0H792C773.718 0 760.859 2 748 4C735.141 6 722.282 8 704 8V0Z" fill="#DFF0ED"/>
<path fill-rule="evenodd" clip-rule="evenodd" d="M880 0H792C810.282 0 823.141 2 836 4C848.859 6 861.718 8 880 8V0Z" fill="#DFF0ED"/>
<path fill-rule="evenodd" clip-rule="evenodd" d="M880 0H968C949.718 0 936.859 2 924 4C911.141 6 898.282 8 880 8V0Z" fill="#DFF0ED"/>
<path fill-rule="evenodd" clip-rule="evenodd" d="M1056 0H968C986.282 0 999.141 2 1012 4C1024.86 6 1037.72 8 1056 8V0Z" fill="#DFF0ED"/>
<path fill-rule="evenodd" clip-rule="evenodd" d="M1056 0H1144C1125.72 0 1112.86 2 1100 4C1087.14 6 1074.28 8 1056 8V0Z" fill="#DFF0ED"/>
<path fill-rule="evenodd" clip-rule="evenodd" d="M1232 0H1144C1162.28 0 1175.14 2 1188 4C1200.86 6 1213.72 8 1232 8V0Z" fill="#DFF0ED"/>
<path fill-rule="evenodd" clip-rule="evenodd" d="M1232 0H1320C1301.72 0 1288.86 2 1276 4C1263.14 6 1250.28 8 1232 8V0Z" fill="#DFF0ED"/>
<path fill-rule="evenodd" clip-rule="evenodd" d="M1408 0H1320C1338.28 0 1351.14 2 1364 4C1376.86 6 1389.72 8 1408 8V0Z" fill="#DFF0ED"/>
<path fill-rule="evenodd" clip-rule="evenodd" d="M1408 0H1496C1477.72 0 1464.86 2 1452 4C1439.14 6 1426.28 8 1408 8V0Z" fill="#DFF0ED"/>
</svg>
