<svg width="1440" height="8" viewBox="0 0 1440 8" fill="none" xmlns="http://www.w3.org/2000/svg">
<path fill-rule="evenodd" clip-rule="evenodd" d="M0 8H88C69.7178 8 56.8589 6 44 4C31.1411 2 18.2822 0 0 0V8Z" fill="#DFF0ED"/>
<path fill-rule="evenodd" clip-rule="evenodd" d="M176 8H88C106.282 8 119.141 6 132 4C144.859 2 157.718 0 176 0V8Z" fill="#DFF0ED"/>
<path fill-rule="evenodd" clip-rule="evenodd" d="M176 8H264C245.718 8 232.859 6 220 4C207.141 2 194.282 0 176 0V8Z" fill="#DFF0ED"/>
<path fill-rule="evenodd" clip-rule="evenodd" d="M352 8H264C282.282 8 295.141 6 308 4C320.859 2 333.718 0 352 0V8Z" fill="#DFF0ED"/>
<path fill-rule="evenodd" clip-rule="evenodd" d="M352 8H440C421.718 8 408.859 6 396 4C383.141 2 370.282 0 352 0V8Z" fill="#DFF0ED"/>
<path fill-rule="evenodd" clip-rule="evenodd" d="M528 8H440C458.282 8 471.141 6 484 4C496.859 2 509.718 0 528 0V8Z" fill="#DFF0ED"/>
<path fill-rule="evenodd" clip-rule="evenodd" d="M528 8H616C597.718 8 584.859 6 572 4C559.141 2 546.282 0 528 0V8Z" fill="#DFF0ED"/>
<path fill-rule="evenodd" clip-rule="evenodd" d="M704 8H616C634.282 8 647.141 6 660 4C672.859 2 685.718 0 704 0V8Z" fill="#DFF0ED"/>
<path fill-rule="evenodd" clip-rule="evenodd" d="M704 8H792C773.718 8 760.859 6 748 4C735.141 2 722.282 0 704 0V8Z" fill="#DFF0ED"/>
<path fill-rule="evenodd" clip-rule="evenodd" d="M880 8H792C810.282 8 823.141 6 836 4C848.859 2 861.718 0 880 0V8Z" fill="#DFF0ED"/>
<path fill-rule="evenodd" clip-rule="evenodd" d="M880 8H968C949.718 8 936.859 6 924 4C911.141 2 898.282 0 880 0V8Z" fill="#DFF0ED"/>
<path fill-rule="evenodd" clip-rule="evenodd" d="M1056 8H968C986.282 8 999.141 6 1012 4C1024.86 2 1037.72 0 1056 0V8Z" fill="#DFF0ED"/>
<path fill-rule="evenodd" clip-rule="evenodd" d="M1056 8H1144C1125.72 8 1112.86 6 1100 4C1087.14 2 1074.28 0 1056 0V8Z" fill="#DFF0ED"/>
<path fill-rule="evenodd" clip-rule="evenodd" d="M1232 8H1144C1162.28 8 1175.14 6 1188 4C1200.86 2 1213.72 0 1232 0V8Z" fill="#DFF0ED"/>
<path fill-rule="evenodd" clip-rule="evenodd" d="M1232 8H1320C1301.72 8 1288.86 6 1276 4C1263.14 2 1250.28 0 1232 0V8Z" fill="#DFF0ED"/>
<path fill-rule="evenodd" clip-rule="evenodd" d="M1408 8H1320C1338.28 8 1351.14 6 1364 4C1376.86 2 1389.72 0 1408 0V8Z" fill="#DFF0ED"/>
<path fill-rule="evenodd" clip-rule="evenodd" d="M1408 8H1496C1477.72 8 1464.86 6 1452 4C1439.14 2 1426.28 0 1408 0V8Z" fill="#DFF0ED"/>
</svg>
