<svg width="32" height="32" viewBox="0 0 32 32" fill="none" xmlns="http://www.w3.org/2000/svg">
<path d="M13.36 31.84C5.76 30.48 0 23.92 0 16C0 7.2 7.2 0 16 0C24.8 0 32 7.2 32 16C32 23.92 26.24 30.48 18.64 31.84L17.76 31.12H14.24L13.36 31.84Z" fill="url(#paint0_linear_162_445)"/>
<path d="M22.24 20.48L22.96 16H18.72V12.88C18.72 11.6 19.2 10.64 21.12 10.64H23.2V6.55999C22.08 6.39999 20.8 6.23999 19.68 6.23999C16 6.23999 13.44 8.47999 13.44 12.48V16H9.44V20.48H13.44V31.76C14.32 31.92 15.2 32 16.08 32C16.96 32 17.84 31.92 18.72 31.76V20.48H22.24Z" fill="white"/>
<defs>
<linearGradient id="paint0_linear_162_445" x1="16.0008" y1="30.8871" x2="16.0008" y2="-0.00589422" gradientUnits="userSpaceOnUse">
<stop stop-color="#0062E0"/>
<stop offset="1" stop-color="#19AFFF"/>
</linearGradient>
</defs>
</svg>
