<svg width="32" height="32" viewBox="0 0 32 32" fill="none" xmlns="http://www.w3.org/2000/svg">
<path d="M0 2.29228C0 1.02663 1.0587 0 2.36474 0H29.6353C30.9412 0 32 1.02663 32 2.29228V29.7077C32 30.9738 30.9412 32 29.6353 32H2.36474C1.0587 32 0 30.9738 0 29.7077V2.29228Z" fill="#006699"/>
<path fill-rule="evenodd" clip-rule="evenodd" d="M9.70015 26.7872V12.3374H4.86683V26.7872H9.70015ZM7.28347 10.3646C8.96894 10.3646 10.018 9.25497 10.018 7.86831C9.9866 6.45044 8.96895 5.37165 7.31544 5.37165C5.66211 5.37165 4.58112 6.45044 4.58112 7.86831C4.58112 9.25497 5.62996 10.3646 7.25196 10.3646H7.28347Z" fill="white"/>
<path fill-rule="evenodd" clip-rule="evenodd" d="M12.3746 26.7872H17.2079V18.7179C17.2079 18.286 17.2393 17.8546 17.3669 17.5458C17.7163 16.683 18.5116 15.7893 19.8468 15.7893C21.5958 15.7893 22.2954 17.1144 22.2954 19.0569V26.7872H27.1283V18.5019C27.1283 14.0636 24.7438 11.9984 21.5638 11.9984C18.9564 11.9984 17.8117 13.4466 17.1758 14.433H17.208V12.3374H12.3748C12.4382 13.6933 12.3746 26.7872 12.3746 26.7872Z" fill="white"/>
</svg>
