<svg width="302" height="61" viewBox="0 0 302 61" fill="none" xmlns="http://www.w3.org/2000/svg">
<path fill-rule="evenodd" clip-rule="evenodd" d="M200.117 23.0591C195.187 23.0591 191.191 27.0555 191.191 31.9852C191.191 32.3049 191.185 32.6292 191.179 32.9558L191.179 32.9586L191.179 32.9587C191.162 33.9522 191.144 34.9659 191.285 35.9288C191.599 38.0775 192.685 40.0381 194.341 41.4432C195.504 42.43 196.851 43.1792 198.197 43.9278L198.198 43.9278C199.542 44.6752 200.885 45.4221 202.042 46.4041C202.594 46.8724 202.956 47.526 203.061 48.2422C203.162 48.937 203.138 49.6712 203.113 50.3933L203.113 50.3941C203.103 50.7081 203.092 51.0199 203.092 51.3251C203.092 52.9684 201.76 54.3005 200.117 54.3005C198.474 54.3005 197.141 52.9684 197.141 51.3251C197.141 50.0927 196.142 49.0936 194.91 49.0936H191.191V51.3251C191.191 56.2549 195.187 60.2512 200.117 60.2512C205.047 60.2512 209.043 56.2549 209.043 51.3251C209.043 51.0054 209.049 50.681 209.054 50.3545L209.054 50.3517C209.072 49.3582 209.09 48.3444 208.949 47.3815C208.635 45.2328 207.548 43.2722 205.893 41.8671C204.73 40.8802 203.382 40.131 202.036 39.3824L202.036 39.3823C200.692 38.635 199.349 37.8882 198.192 36.9063C197.64 36.4379 197.277 35.7844 197.173 35.0681C197.071 34.3733 197.096 33.6391 197.12 32.917V32.9162V32.9153V32.9144L197.12 32.9134C197.131 32.6003 197.141 32.2895 197.141 31.9852C197.141 30.342 198.474 29.0098 200.117 29.0098C201.76 29.0098 203.092 30.342 203.092 31.9852C203.092 33.2177 204.091 34.2167 205.324 34.2167H209.043V31.9852C209.043 27.0555 205.047 23.0591 200.117 23.0591ZM236.542 41.6552C236.542 33.8822 241.51 27.2695 248.443 24.8188C250.305 24.1609 252.308 23.8029 254.394 23.8029V59.5074H248.443V47.6059C245.157 47.6059 242.493 50.2701 242.493 53.5566V59.5074H236.542V53.5566V41.6552ZM242.493 43.2474C244.243 42.2347 246.276 41.6552 248.443 41.6552V31.3459C244.886 33.4037 242.493 37.2499 242.493 41.6552V43.2474ZM283.404 23.8029H289.355V41.1468C292.757 39.9447 295.21 36.7415 295.303 32.9481C295.353 30.9036 295.337 28.8587 295.321 26.8138C295.313 25.8102 295.305 24.8065 295.305 23.8029H301.256C301.256 24.8141 301.264 25.8253 301.271 26.8365C301.287 28.9225 301.303 31.0085 301.252 33.0942C301.151 37.1794 299.409 40.854 296.659 43.4834L302 59.5074H295.727L291.463 46.7139C290.782 46.9614 290.078 47.1607 289.355 47.3075V59.5074H283.404V23.8029ZM219.433 23.8029H213.483V59.5074H219.433V47.6059H225.384V59.5074H231.335V23.8029H225.384V41.6552H219.433V23.8029ZM266.296 41.6552C268.477 41.6552 269.755 41.6505 270.697 41.5736C271.709 41.4909 272.082 41.1177 272.165 40.1054C272.242 39.1635 272.246 37.8856 272.246 35.7044C272.246 31.5603 271.075 30.7642 270.495 30.4313C269.704 29.9777 268.387 29.6196 266.296 29.5208V41.6552ZM278.197 35.7044C278.197 24.8612 271.502 22.6872 260.345 23.8029V44.6305V47.6059V59.5074H266.296V47.6059C267.187 47.6059 267.982 47.6059 268.698 47.598L272.668 59.5074H278.941L274.615 46.5284C275.795 45.8129 276.756 44.7808 277.386 43.5444C278.197 41.9533 278.197 39.8703 278.197 35.7044Z" fill="#F0F0F2"/>
<path fill-rule="evenodd" clip-rule="evenodd" d="M11.9015 39.4236V20.0837C11.9015 18.4405 10.5694 17.1084 8.92611 17.1084C7.28286 17.1084 5.95074 18.4405 5.95074 20.0837V39.4236C5.95074 41.0669 7.28286 42.399 8.92611 42.399C10.5694 42.399 11.9015 41.0669 11.9015 39.4236ZM8.92611 11.1576C3.99635 11.1576 0 15.154 0 20.0837V39.4236C0 44.3534 3.99635 48.3497 8.92611 48.3497C9.49613 48.3497 10.0537 48.2963 10.594 48.1942C11.3571 50.1184 12.3638 51.9195 13.5761 53.5593C15.5187 52.9207 17.2846 51.8928 18.7816 50.5679C17.4914 48.9553 16.4751 47.114 15.8031 45.1146C17.083 43.5697 17.8522 41.5865 17.8522 39.4236V20.0837C17.8522 15.154 13.8559 11.1576 8.92611 11.1576ZM23.0591 11.9015V39.4236C23.0591 44.3534 27.0555 48.3497 31.9852 48.3497C36.915 48.3497 40.9113 44.3534 40.9113 39.4236V11.9015H34.9606V39.4236C34.9606 41.0669 33.6285 42.399 31.9852 42.399C30.342 42.399 29.0099 41.0669 29.0099 39.4236V11.9015H23.0591ZM91.4926 11.9015H109.345V13.3892C109.345 15.4931 109.345 16.545 108.691 17.1986C108.038 17.8522 106.986 17.8522 104.882 17.8522H103.394V47.6059H97.4434V17.8522H91.4926V11.9015ZM46.1182 29.7537C46.1182 21.9807 51.086 15.368 58.0197 12.9173C59.881 12.2594 61.8839 11.9015 63.9704 11.9015V47.6059H58.0197V35.7044C54.7332 35.7044 52.069 38.3687 52.069 41.6552V47.6059H46.1182V41.6552V29.7537ZM52.069 31.3459C53.8195 30.3333 55.8519 29.7537 58.0197 29.7537V19.4444C54.4623 21.5022 52.069 25.3485 52.069 29.7537V31.3459ZM69.9212 11.9015C71.1539 11.9015 71.7702 11.9015 72.3239 12.0073C73.9732 12.3226 75.4126 13.3201 76.287 14.7537C76.5805 15.235 76.7969 15.8121 77.2297 16.9663L81.2145 27.5924L81.8227 31.2414V11.9015H87.7734V47.6059C86.5407 47.6059 85.9244 47.6059 85.3707 47.5001C83.7213 47.1847 82.282 46.1873 81.4076 44.7536C81.1141 44.2724 80.8977 43.6953 80.4649 42.5411L76.4801 31.915L75.8719 28.266V47.6059H69.9212V11.9015Z" fill="#F0F0F2"/>
<path fill-rule="evenodd" clip-rule="evenodd" d="M158.438 0C148.579 0 140.586 7.9927 140.586 17.8522V59.5074H158.438V0ZM164.389 59.5074H182.241V17.8522C172.382 17.8522 164.389 25.8449 164.389 35.7044V59.5074ZM116.783 59.5074H134.635V11.9015C124.776 11.9015 116.783 19.8942 116.783 29.7537V59.5074Z" fill="#3AD2AE"/>
</svg>
